<svg class="dryer-svg" viewBox="0 0 64 64" xmlns="http://www.w3.org/2000/svg" aria-hidden="true">
  <!-- Ram + panel -->
  <g fill="none" stroke="currentColor" stroke-width="3" stroke-linecap="round" stroke-linejoin="round">
    <rect x="5" y="7" width="54" height="50" rx="6"/>
    <line x1="5" y1="19" x2="59" y2="19"/>
  </g>
  <g fill="currentColor">
    <circle cx="14" cy="13" r="2.5"/>
    <rect x="40" y="10" width="15" height="6" rx="2" ry="2"
          fill="none" stroke="currentColor" stroke-width="2"/>
  </g>

  <!-- Dörr / trumma -->
  <g class="door" style="transform-origin:32px 38px">
    <circle cx="32" cy="38" r="14" fill="none" stroke="currentColor" stroke-width="3"/>
    <circle cx="32" cy="38" r="9"  fill="none" stroke="currentColor" stroke-width="3"/>

    <!-- Klipp för fläktbladen -->
    <clipPath id="fanClip">
      <circle cx="32" cy="38" r="8.6"/>
    </clipPath>

    <!-- Fläkt (3 blad) -->
    <g class="fan" clip-path="url(#fanClip)" style="transform-origin:32px 38px" fill="currentColor">
      <circle cx="32" cy="38" r="1.8"/>
      <path id="blade" d="
        M32 38
        C 31 36, 32 34, 34 33
        C 36 32, 38 33, 38.5 34.5
        C 39 36, 38 38, 36.5 39
        C 35 40, 33 40, 32 38 Z" />
      <use href="#blade" transform="rotate(120 32 38)"/>
      <use href="#blade" transform="rotate(240 32 38)"/>
    </g>
  </g>

  <!-- Värmevågor till höger -->
  <g class="heat" fill="none" stroke="currentColor" stroke-width="1.5" stroke-linecap="round" stroke-linejoin="round">
    <path d="M46 32 q2 -3 4 0 t4 0" />
    <path d="M46 38 q2 -3 4 0 t4 0" />
    <path d="M46 44 q2 -3 4 0 t4 0" />
  </g>
</svg>
