<svg viewBox="0 0 64 64" xmlns="http://www.w3.org/2000/svg">
  <g fill="none" stroke="#000" stroke-linecap="round" stroke-linejoin="round">
    <g stroke-width="2.5">
      <circle cx="12" cy="9" r="4"/>
      <line x1="12" y1="0.5" x2="12" y2="3.5"/>
      <line x1="12" y1="14.5" x2="12" y2="17.5"/>
      <line x1="3.5" y1="9" x2="6.5" y2="9"/>
      <line x1="17.5" y1="9" x2="20.5" y2="9"/>
      <line x1="6" y1="3" x2="8.1" y2="5.1"/>
      <line x1="18" y1="3" x2="15.9" y2="5.1"/>
      <line x1="6" y1="15" x2="8.1" y2="12.9"/>
      <line x1="18" y1="15" x2="15.9" y2="12.9"/>
    </g>
    <g stroke-width="3">
      <line x1="6" y1="22" x2="58" y2="22"/>
      <line x1="8" y1="22" x2="4" y2="50"/>
      <line x1="56" y1="22" x2="60" y2="50"/>
      <path d="M 4 50 Q 11 57 18 50 Q 25 57 32 50 Q 39 57 46 50 Q 53 57 60 50"/>
      <line x1="22" y1="22" x2="20" y2="50" stroke-width="2"/>
      <line x1="32" y1="22" x2="32" y2="50" stroke-width="2"/>
      <line x1="42" y1="22" x2="44" y2="50" stroke-width="2"/>
    </g>
  </g>
</svg>
